<svg width="32" height="32" viewBox="0 0 20 20" fill="none" xmlns="http://www.w3.org/2000/svg">
    <path fill-rule="evenodd" clip-rule="evenodd" d="M18.5355 1.46447C17.0711 2.38419e-07 14.714 2.0621e-07 10 1.52795e-10C5.28595 -2.05905e-07 2.92893 -2.38419e-07 1.46447 1.46447C2.38419e-07 2.92893 2.06212e-07 5.28595 1.54159e-10 10C-2.05903e-07 14.714 -2.38419e-07 17.0711 1.46447 18.5355C2.92893 20 5.28595 20 10 20C14.714 20 17.0711 20 18.5355 18.5355C20 17.0711 20 14.714 20 10C20 5.28595 20 2.92893 18.5355 1.46447ZM14.75 10C14.75 10.4142 14.4142 10.75 14 10.75H7.81066L9.53033 12.4697C9.82322 12.7626 9.82322 13.2374 9.53033 13.5303C9.23744 13.8232 8.76256 13.8232 8.46967 13.5303L5.46967 10.5303C5.32902 10.3897 5.25 10.1989 5.25 10C5.25 9.80109 5.32902 9.61032 5.46967 9.46967L8.46967 6.46967C8.76256 6.17678 9.23744 6.17678 9.53033 6.46967C9.82322 6.76256 9.82322 7.23744 9.53033 7.53033L7.81066 9.25H14C14.4142 9.25 14.75 9.58579 14.75 10Z" fill="white"/>
    </svg>
    