<svg width="12" height="20" viewBox="0 0 12 20" fill="none" xmlns="http://www.w3.org/2000/svg">
<path d="M7.11646 11.3544V11.353C7.11951 10.2354 7.11924 9.11842 7.11897 8.0003C7.11889 7.68065 7.11881 7.36091 7.11881 7.04104C7.11881 6.74424 7.11889 6.44758 7.11897 6.15102C7.11924 5.11394 7.11951 4.07805 7.11647 3.0415C7.11569 2.82783 7.11018 2.65328 7.07918 2.49772C6.89184 1.55996 6.36968 0.945087 5.48352 0.644046L7.11646 11.3544ZM7.11646 11.3544C7.11646 11.4639 7.13057 11.5921 7.18775 11.7245M7.11646 11.3544L7.18775 11.7245M6.94898 6.79205V7.29205C6.94898 7.67817 6.94925 8.06459 6.94952 8.45119C6.95028 9.53456 6.95104 10.6194 6.94585 11.7033C6.94565 11.7975 6.96144 11.8478 6.97667 11.8783C6.99149 11.9081 7.02107 11.9498 7.09577 12.0038C8.41808 12.9579 9.04092 14.6332 8.66141 16.1934C8.27136 17.8001 6.99036 19.0125 5.38016 19.2758C3.12003 19.6463 0.979574 18.0654 0.709317 15.7861L0.709283 15.7858C0.526869 14.2397 1.09395 12.9605 2.31817 12.0239L2.31845 12.0237C2.40126 11.9604 2.43587 11.9131 2.45334 11.8788C2.47012 11.8459 2.48663 11.7946 2.4864 11.6989V11.6989C2.48251 10.11 2.48244 8.51845 2.48236 6.92744C2.4823 5.6355 2.48224 4.34394 2.48014 3.05456L2.48014 3.05436C2.47921 2.29441 2.73141 1.58309 3.4323 1.09455C4.12529 0.610663 4.91645 0.531799 5.6891 0.909015C6.43903 1.27472 6.92662 1.93127 6.93799 2.81728C6.93799 2.81735 6.93799 2.81741 6.93799 2.81748L6.94898 6.79205ZM6.94898 6.79205H6.94472H6.94898ZM7.18775 11.7245C7.24545 11.8581 7.33139 11.96 7.4221 12.0412M7.18775 11.7245L7.4221 12.0412M7.4221 12.0412L7.75566 11.6688L7.4221 12.0412ZM1.99784 12.058C2.08783 11.9784 2.17665 11.8769 2.23784 11.7421C2.29939 11.6065 2.31722 11.4719 2.31655 11.3493L1.81656 11.3521C1.8147 10.0324 1.81461 8.71273 1.81452 7.39306C1.81442 5.94141 1.81433 4.48976 1.81187 3.03811C1.8103 2.15291 2.08869 1.38658 2.74946 0.789932L1.99784 12.058Z" fill="#9A9B9E" stroke="#9A9B9E"/>
<path d="M10.2908 3.49935C10.0046 3.49935 9.71835 3.50326 9.43293 3.49857C9.05054 3.49153 8.7878 3.24599 8.79405 2.90896C8.80031 2.57584 9.05602 2.33577 9.42745 2.33186C9.99986 2.32639 10.5715 2.32639 11.1439 2.33186C11.5216 2.33499 11.7875 2.58757 11.7828 2.92304C11.7781 3.25538 11.5231 3.49075 11.1501 3.49857C10.8624 3.50404 10.577 3.49935 10.2908 3.49935Z" fill="#9A9B9E"/>
<path d="M10.2811 8.18428C9.99493 8.18428 9.70873 8.18819 9.42252 8.1835C9.05109 8.17646 8.79538 7.93796 8.79225 7.60484C8.78991 7.27484 9.04561 7.02305 9.41549 7.01758C9.99415 7.00897 10.5728 7.00976 11.1515 7.01758C11.5221 7.02227 11.7778 7.26859 11.781 7.59858C11.7841 7.93639 11.5213 8.17803 11.139 8.1835C10.8528 8.18819 10.5666 8.18428 10.2811 8.18428Z" fill="#9A9B9E"/>
<path d="M10.2803 10.5271C9.99415 10.5271 9.70794 10.531 9.42174 10.5263C9.05187 10.5201 8.7946 10.2808 8.79225 9.94767C8.78991 9.62471 9.03857 9.36901 9.39594 9.36197C9.98711 9.35102 10.5791 9.35102 11.171 9.36197C11.5378 9.36901 11.7919 9.63332 11.7802 9.96096C11.7684 10.2878 11.5174 10.5169 11.1577 10.5263C11.0084 10.5302 10.859 10.5271 10.7089 10.5271C10.5666 10.5271 10.4235 10.5271 10.2803 10.5271Z" fill="#9A9B9E"/>
<path d="M10.293 5.84228C10.0068 5.84228 9.72063 5.84619 9.43521 5.8415C9.05126 5.83525 8.79008 5.59284 8.79399 5.25502C8.7979 4.92268 9.05282 4.67949 9.42504 4.67558C10.0037 4.66854 10.5824 4.66776 11.161 4.67636C11.5278 4.68105 11.7858 4.93598 11.7827 5.26441C11.7796 5.59674 11.5239 5.83447 11.1524 5.8415C10.8647 5.84619 10.5785 5.84228 10.293 5.84228Z" fill="#9A9B9E"/>
<path d="M5.3057 12.966C5.80147 13.1099 6.22296 13.3585 6.54122 13.7566C7.10893 14.4666 7.26298 15.2634 6.93612 16.115C6.61394 16.9548 5.99149 17.4772 5.09691 17.6164C3.58692 17.8518 2.29119 16.6866 2.3428 15.1649C2.37486 14.2156 3.03172 13.3359 3.95523 13.0293C4.10224 12.9808 4.13899 12.9191 4.13821 12.7736C4.13352 10.283 4.1343 7.79166 4.13587 5.30107C4.13587 4.85456 4.50027 4.56758 4.89673 4.69582C5.12194 4.76855 5.28302 4.9742 5.30335 5.21662C5.30883 5.28152 5.3057 5.34643 5.3057 5.41133C5.3057 7.85031 5.3057 10.2893 5.3057 12.7283C5.3057 12.8049 5.3057 12.8823 5.3057 12.966Z" fill="#9A9B9E"/>
</svg>
