<svg
  width="24"
  height="24"
  viewBox="0 0 24 24"
  fill="none"
>
  <path
    d="M5.7496 13.7791L5.75011 13.7619C5.79263 12.3484 6.15592 11.0234 6.71479 9.75434L6.71481 9.75432C7.52767 7.90898 8.66502 6.27972 9.98192 4.78346L5.7496 13.7791ZM5.7496 13.7791L5.75142 13.7961L5.7496 13.7791ZM17.2225 8.77438L17.2225 8.77439C17.8351 9.92452 18.3063 11.138 18.5199 12.4446C18.9014 14.7746 18.3462 16.848 16.5935 18.5079C15.1913 19.8362 13.4856 20.3895 11.5721 20.2204C11.5721 20.2204 11.5721 20.2204 11.5721 20.2204L11.5941 19.9713L17.2225 8.77438ZM17.2225 8.77438C16.0613 6.59457 14.52 4.71421 12.7466 3.0256M17.2225 8.77438L12.7466 3.0256M12.207 4.27036C13.2856 5.3503 14.2571 6.49319 15.102 7.7404L15.1021 7.74048C15.9665 9.01557 16.6839 10.3481 17.0802 11.8252L17.0802 11.8253C17.3948 12.9968 17.5131 14.15 17.1462 15.2837L17.1462 15.2837C16.4965 17.2912 15.1429 18.5259 13.0712 18.8948C10.2895 19.3897 7.67771 17.564 7.13898 14.7931L12.207 4.27036ZM12.207 4.27036C11.0394 5.43544 9.98646 6.69115 9.08897 8.07082L12.207 4.27036ZM11.3427 3.35339C11.4478 3.24722 11.5525 3.14137 11.6565 3.03561L11.3427 3.35339ZM11.3427 3.35339C10.8833 3.81758 10.4177 4.28797 9.98198 4.78339L11.3427 3.35339ZM12.7466 3.0256C12.5979 2.88335 12.4207 2.75052 12.2026 2.75C11.981 2.74947 11.8046 2.88489 11.6567 3.03548L12.7466 3.0256ZM7.284 11.9989C7.04959 12.9337 6.95881 13.8638 7.13895 14.793L7.284 11.9989ZM7.284 11.9989C7.63846 10.5861 8.28949 9.30051 9.08893 8.07087L7.284 11.9989Z"
    fill="#9A9B9E"
    stroke="#9A9B9E"
    stroke-width="0.5"
  />
  <path
    d="M9.10108 13.1393C9.12356 13.6919 9.22365 14.2258 9.45719 14.7313C9.7843 15.4399 10.2789 16.0012 10.9389 16.4168C10.9497 16.4236 10.9606 16.4303 10.9714 16.437C10.9966 16.4524 11.0218 16.4678 11.0456 16.485C11.2385 16.625 11.2864 16.8382 11.1674 17.021C11.0499 17.2009 10.8265 17.2487 10.6263 17.1312C10.1919 16.8752 9.80751 16.5568 9.47823 16.1753C8.75657 15.3369 8.38378 14.3599 8.33301 13.2154L8.08422 13.24C8.08398 13.2376 8.08375 13.2352 8.08353 13.2328M9.10108 13.1393L9.35088 13.1293C9.35088 13.1292 9.35088 13.1292 9.35087 13.1291M9.10108 13.1393C9.09165 12.9043 8.92411 12.7353 8.71596 12.7469L8.08353 13.2328M9.10108 13.1393L9.35087 13.1291M9.35087 13.1291C9.3724 13.6582 9.46773 14.158 9.68415 14.6264L9.68418 14.6265C9.9909 15.2909 10.4528 15.8153 11.0722 16.2053L11.0726 16.2056C11.0777 16.2088 11.0847 16.2131 11.0929 16.2181C11.1197 16.2345 11.1598 16.2591 11.1921 16.2825L11.1924 16.2827C11.3297 16.3823 11.4305 16.5196 11.4673 16.6817C11.5044 16.8458 11.4706 17.0134 11.3769 17.1574L11.3767 17.1577C11.1796 17.4594 10.8043 17.5255 10.4998 17.3468L10.4994 17.3466C10.0421 17.0771 9.63648 16.7413 9.28897 16.3387L9.28875 16.3384C8.52971 15.4565 8.13773 14.4272 8.08353 13.2328M9.35087 13.1291C9.33687 12.7819 9.07522 12.4765 8.70204 12.4973L8.70204 12.4973L8.70149 12.4973C8.5551 12.5058 8.38773 12.5596 8.25992 12.6885C8.12688 12.8226 8.06339 13.0114 8.08353 13.2328"
    fill="#9A9B9E"
    stroke="#9A9B9E"
    stroke-width="0.5"
  />
</svg>
